<svg width="25" height="22" viewBox="0 0 25 22" fill="none" xmlns="http://www.w3.org/2000/svg">
<path d="M3 1H21.7803C22.8848 1 23.7803 1.89543 23.7803 3V18.4639C23.78 19.5682 22.8847 20.4639 21.7803 20.4639H3C1.89558 20.4639 1.00024 19.5682 1 18.4639V3C1 1.89543 1.89543 1 3 1Z" stroke="white" stroke-width="2"/>
<path d="M2.97367 17.5366V3.92683C2.97367 3.37454 3.42139 2.92683 3.97367 2.92683H7.92101C8.4733 2.92683 8.92101 3.37455 8.92101 3.92683V17.5366C8.92101 18.0889 8.4733 18.5366 7.92101 18.5366H3.97367C3.42139 18.5366 2.97367 18.0889 2.97367 17.5366Z" fill="white"/>
</svg>
