<svg width="23" height="23" viewBox="0 0 23 23" fill="none" xmlns="http://www.w3.org/2000/svg">
<path d="M9.49349 0C4.26163 0 0 4.1945 0 9.34395C0 14.4934 4.26163 18.6879 9.49349 18.6879C11.7686 18.6879 13.858 17.8927 15.4955 16.5727L21.1638 22.1517C21.2513 22.2414 21.3561 22.313 21.472 22.3623C21.588 22.4117 21.7127 22.4377 21.839 22.439C21.9653 22.4402 22.0906 22.4167 22.2076 22.3697C22.3245 22.3227 22.4307 22.2532 22.5201 22.1653C22.6094 22.0774 22.68 21.9728 22.7277 21.8577C22.7754 21.7427 22.7994 21.6193 22.7981 21.495C22.7968 21.3707 22.7703 21.2479 22.7202 21.1338C22.6701 21.0197 22.5974 20.9165 22.5063 20.8304L16.838 15.2514C18.1791 13.6397 18.987 11.5832 18.987 9.34395C18.987 4.1945 14.7254 0 9.49349 0ZM9.49349 1.86879C13.6992 1.86879 17.0883 5.20447 17.0883 9.34395C17.0883 13.4834 13.6992 16.8191 9.49349 16.8191C5.28776 16.8191 1.8987 13.4834 1.8987 9.34395C1.8987 5.20447 5.28776 1.86879 9.49349 1.86879Z" fill="white"/>
</svg>
