<svg width="26" height="21" viewBox="0 0 26 21" fill="none" xmlns="http://www.w3.org/2000/svg">
<path d="M25.5654 18.8115C25.565 19.6008 24.7857 20.6531 23.6182 20.6533H1.94629C0.778572 20.6533 0.000406424 19.6009 0 18.8115V6.18066H25.5654V18.8115ZM2.26172 17.6963C2.26194 18.1565 2.6449 18.3535 2.92969 18.3535H22.6357C22.9204 18.3531 23.3035 18.156 23.3037 17.6963V8.47949H2.26172V17.6963ZM7.28027 0C7.83478 0 8.55748 0.422235 8.55762 1.20605V2.41211H23.5986C25.2208 2.41224 25.5458 3.75732 25.5459 4.60156H6.29688V2.79297C6.29688 2.49145 6.0414 2.18945 5.6582 2.18945H2.89844C2.51545 2.18965 2.25977 2.49155 2.25977 2.79297V4.60156H0V1.20605C0.000118519 0.663355 0.447195 0 1.27734 0H7.28027Z" fill="white"/>
</svg>
