<svg width="29" height="29" viewBox="0 0 29 29" fill="none" xmlns="http://www.w3.org/2000/svg">
<g clip-path="url(#clip0_43_377)">
<path d="M21.3338 21.3784V25.157C21.3338 26.2346 20.4463 27.1082 19.3514 27.1082H2.97367C1.8788 27.1082 0.991226 26.2346 0.991226 25.157V9.03725C0.991226 7.95962 1.8788 7.08602 2.97367 7.08602H5.08094" stroke="white" stroke-width="2" stroke-linecap="round"/>
<path d="M20.5042 1.74015L26.0456 7.19435L22.1345 9.49164L18.1701 5.58962L20.5042 1.74015ZM5.64833 20.4027C7.64492 16.5887 9.26851 12.4857 9.49233 9.09821C13.1711 8.64826 14.5076 8.58234 16.4932 6.55165L21.1578 11.1428C20.4587 11.831 19.9572 12.451 19.5938 13.0433C19.5162 13.2094 19.4433 13.3663 19.3912 13.4691C19.3013 13.6463 19.1114 14.0856 18.9566 14.4426C18.6266 15.522 18.6233 16.6269 18.5719 18.0347C14.4459 18.4546 10.4055 20.1466 7.13226 21.8229L13.8401 15.2207C14.6195 15.4925 15.5217 15.3239 16.1448 14.7107C17.0088 13.8602 17.0077 12.48 16.1427 11.6286C15.2776 10.7774 13.8759 10.7768 13.0119 11.6272C12.4387 12.1916 12.2482 12.9883 12.4363 13.7097L5.64833 20.4027Z" fill="white"/>
</g>
<defs>
<clipPath id="clip0_43_377">
<rect width="28.7455" height="28.2927" fill="white"/>
</clipPath>
</defs>
</svg>
